<svg version="1.1" xmlns="http://www.w3.org/2000/svg" viewBox="0 0 1920 1080" style="width: 40px; height: 40px;">
  <style>
    .girar {
      transform-origin: center;
      animation: spinner 2s linear infinite;
    }
    @keyframes spinner {
      from { transform: rotate(0deg); }
      to { transform: rotate(360deg); }
    }
  </style>
  <g class="girar" fill="#FFFFFF"> <path d="M7966 7953 c89 -45 128 -161 86 -255 -16 -36 -44 -64 -143 -143 -139
    -110 -340 -307 -442 -435 -501 -624 -706 -1435 -562 -2215 108 -581 376 -1076
    809 -1493 301 -289 661 -501 1070 -631 398 -127 886 -159 1290 -85 92 16 107
    17 84 3 -10 -5 -18 -21 -18 -34 0 -14 -5 -25 -11 -25 -7 0 -9 -16 -5 -47 4
    -27 8 -76 9 -110 2 -43 8 -67 19 -75 8 -7 19 -26 22 -41 6 -25 10 -28 34 -23
    61 12 107 15 92 7 -24 -13 -219 -50 -280 -53 -30 -2 -58 -7 -62 -12 -10 -15
    -537 -20 -653 -7 -175 20 -189 22 -250 32 -796 137 -1527 597 -2006 1263 -227
    315 -396 677 -490 1050 -304 1204 117 2455 1088 3235 118 94 176 124 234 118
    26 -2 64 -13 85 -24z" transform="translate(0,1080) scale(0.1,-0.1)"/>
  </g>
</svg>